{
	"patcher" : 	{
		"fileversion" : 1,
		"rect" : [ 632.0, 199.0, 945.0, 615.0 ],
		"bglocked" : 0,
		"defrect" : [ 632.0, 199.0, 945.0, 615.0 ],
		"openrect" : [ 0.0, 0.0, 0.0, 0.0 ],
		"openinpresentation" : 1,
		"default_fontsize" : 12.0,
		"default_fontface" : 0,
		"default_fontname" : "Arial",
		"gridonopen" : 0,
		"gridsize" : [ 15.0, 15.0 ],
		"gridsnaponopen" : 0,
		"toolbarvisible" : 1,
		"boxanimatetime" : 200,
		"imprint" : 0,
		"enablehscroll" : 1,
		"enablevscroll" : 1,
		"devicewidth" : 0.0,
		"boxes" : [ 			{
				"box" : 				{
					"maxclass" : "outlet",
					"numinlets" : 1,
					"numoutlets" : 0,
					"patching_rect" : [ 415.0, 222.0, 25.0, 25.0 ],
					"id" : "obj-6",
					"comment" : ""
				}

			}
, 			{
				"box" : 				{
					"maxclass" : "outlet",
					"numinlets" : 1,
					"numoutlets" : 0,
					"patching_rect" : [ 389.5, 222.0, 25.0, 25.0 ],
					"id" : "obj-8",
					"comment" : ""
				}

			}
, 			{
				"box" : 				{
					"maxclass" : "outlet",
					"numinlets" : 1,
					"numoutlets" : 0,
					"patching_rect" : [ 364.5, 222.0, 25.0, 25.0 ],
					"id" : "obj-10",
					"comment" : ""
				}

			}
, 			{
				"box" : 				{
					"maxclass" : "outlet",
					"numinlets" : 1,
					"numoutlets" : 0,
					"patching_rect" : [ 341.5, 222.0, 25.0, 25.0 ],
					"id" : "obj-12",
					"comment" : ""
				}

			}
, 			{
				"box" : 				{
					"maxclass" : "gain~",
					"numinlets" : 2,
					"presentation_rect" : [ 311.0, 35.0, 15.0, 111.0 ],
					"numoutlets" : 2,
					"outlettype" : [ "signal", "int" ],
					"patching_rect" : [ 414.0, 67.0, 13.0, 111.0 ],
					"presentation" : 1,
					"id" : "obj-14"
				}

			}
, 			{
				"box" : 				{
					"maxclass" : "gain~",
					"numinlets" : 2,
					"presentation_rect" : [ 288.0, 35.0, 15.0, 111.0 ],
					"numoutlets" : 2,
					"outlettype" : [ "signal", "int" ],
					"patching_rect" : [ 391.0, 67.0, 13.0, 111.0 ],
					"presentation" : 1,
					"id" : "obj-16"
				}

			}
, 			{
				"box" : 				{
					"maxclass" : "gain~",
					"numinlets" : 2,
					"presentation_rect" : [ 264.0, 35.0, 15.0, 111.0 ],
					"numoutlets" : 2,
					"outlettype" : [ "signal", "int" ],
					"patching_rect" : [ 367.0, 67.0, 13.0, 111.0 ],
					"presentation" : 1,
					"id" : "obj-18"
				}

			}
, 			{
				"box" : 				{
					"maxclass" : "gain~",
					"numinlets" : 2,
					"presentation_rect" : [ 241.0, 35.0, 15.0, 111.0 ],
					"numoutlets" : 2,
					"outlettype" : [ "signal", "int" ],
					"patching_rect" : [ 344.0, 67.0, 13.0, 111.0 ],
					"presentation" : 1,
					"id" : "obj-19"
				}

			}
, 			{
				"box" : 				{
					"maxclass" : "outlet",
					"numinlets" : 1,
					"numoutlets" : 0,
					"patching_rect" : [ 311.0, 223.0, 25.0, 25.0 ],
					"id" : "obj-4",
					"comment" : ""
				}

			}
, 			{
				"box" : 				{
					"maxclass" : "outlet",
					"numinlets" : 1,
					"numoutlets" : 0,
					"patching_rect" : [ 285.5, 223.0, 25.0, 25.0 ],
					"id" : "obj-2",
					"comment" : ""
				}

			}
, 			{
				"box" : 				{
					"maxclass" : "outlet",
					"numinlets" : 1,
					"numoutlets" : 0,
					"patching_rect" : [ 260.5, 223.0, 25.0, 25.0 ],
					"id" : "obj-1",
					"comment" : ""
				}

			}
, 			{
				"box" : 				{
					"maxclass" : "comment",
					"text" : "Volumes:",
					"fontname" : "Arial",
					"numinlets" : 1,
					"presentation_rect" : [ 156.0, 10.0, 70.0, 20.0 ],
					"fontsize" : 12.0,
					"numoutlets" : 0,
					"patching_rect" : [ 122.0, 136.0, 70.0, 20.0 ],
					"presentation" : 1,
					"id" : "obj-40"
				}

			}
, 			{
				"box" : 				{
					"maxclass" : "comment",
					"text" : "Conductor:",
					"underline" : 1,
					"fontname" : "Arial",
					"numinlets" : 1,
					"presentation_rect" : [ 11.0, 5.0, 99.0, 25.0 ],
					"fontface" : 1,
					"fontsize" : 16.0,
					"numoutlets" : 0,
					"patching_rect" : [ 34.5, 299.5, 215.0, 25.0 ],
					"presentation" : 1,
					"id" : "obj-39"
				}

			}
, 			{
				"box" : 				{
					"maxclass" : "outlet",
					"numinlets" : 1,
					"numoutlets" : 0,
					"patching_rect" : [ 237.5, 223.0, 25.0, 25.0 ],
					"id" : "obj-32",
					"comment" : ""
				}

			}
, 			{
				"box" : 				{
					"maxclass" : "outlet",
					"numinlets" : 1,
					"numoutlets" : 0,
					"patching_rect" : [ 129.5, 228.0, 25.0, 25.0 ],
					"id" : "obj-31",
					"comment" : ""
				}

			}
, 			{
				"box" : 				{
					"maxclass" : "outlet",
					"numinlets" : 1,
					"numoutlets" : 0,
					"patching_rect" : [ 95.0, 228.0, 25.0, 25.0 ],
					"id" : "obj-30",
					"comment" : ""
				}

			}
, 			{
				"box" : 				{
					"maxclass" : "newobj",
					"text" : "loadmess 120",
					"fontname" : "Arial",
					"numinlets" : 1,
					"fontsize" : 12.0,
					"numoutlets" : 1,
					"outlettype" : [ "" ],
					"patching_rect" : [ 205.5, 40.0, 85.0, 20.0 ],
					"id" : "obj-29"
				}

			}
, 			{
				"box" : 				{
					"maxclass" : "outlet",
					"numinlets" : 1,
					"numoutlets" : 0,
					"patching_rect" : [ 65.0, 228.0, 25.0, 25.0 ],
					"id" : "obj-28",
					"comment" : ""
				}

			}
, 			{
				"box" : 				{
					"maxclass" : "gain~",
					"numinlets" : 2,
					"presentation_rect" : [ 217.0, 35.0, 15.0, 111.0 ],
					"numoutlets" : 2,
					"outlettype" : [ "signal", "int" ],
					"patching_rect" : [ 310.0, 68.0, 13.0, 111.0 ],
					"presentation" : 1,
					"id" : "obj-23"
				}

			}
, 			{
				"box" : 				{
					"maxclass" : "gain~",
					"numinlets" : 2,
					"presentation_rect" : [ 194.0, 35.0, 15.0, 111.0 ],
					"numoutlets" : 2,
					"outlettype" : [ "signal", "int" ],
					"patching_rect" : [ 287.0, 68.0, 13.0, 111.0 ],
					"presentation" : 1,
					"id" : "obj-24"
				}

			}
, 			{
				"box" : 				{
					"maxclass" : "gain~",
					"numinlets" : 2,
					"presentation_rect" : [ 170.0, 35.0, 15.0, 111.0 ],
					"numoutlets" : 2,
					"outlettype" : [ "signal", "int" ],
					"patching_rect" : [ 263.0, 68.0, 13.0, 111.0 ],
					"presentation" : 1,
					"id" : "obj-22"
				}

			}
, 			{
				"box" : 				{
					"maxclass" : "gain~",
					"numinlets" : 2,
					"presentation_rect" : [ 147.0, 35.0, 15.0, 111.0 ],
					"numoutlets" : 2,
					"outlettype" : [ "signal", "int" ],
					"patching_rect" : [ 240.0, 68.0, 13.0, 111.0 ],
					"presentation" : 1,
					"id" : "obj-21"
				}

			}
, 			{
				"box" : 				{
					"maxclass" : "panel",
					"numinlets" : 1,
					"bgcolor" : [ 0.909804, 0.27451, 0.27451, 0.215686 ],
					"presentation_rect" : [ 2.0, 1.0, 336.0, 157.0 ],
					"numoutlets" : 0,
					"patching_rect" : [ 566.0, 12.5, 237.5, 174.5 ],
					"presentation" : 1,
					"id" : "obj-20"
				}

			}
, 			{
				"box" : 				{
					"maxclass" : "message",
					"text" : "Cue 3",
					"fontname" : "Arial",
					"numinlets" : 2,
					"presentation_rect" : [ 84.0, 128.0, 50.0, 18.0 ],
					"fontsize" : 12.0,
					"numoutlets" : 1,
					"outlettype" : [ "" ],
					"patching_rect" : [ 177.0, 174.0, 50.0, 18.0 ],
					"presentation" : 1,
					"id" : "obj-17"
				}

			}
, 			{
				"box" : 				{
					"maxclass" : "message",
					"text" : "Cue 2",
					"fontname" : "Arial",
					"numinlets" : 2,
					"presentation_rect" : [ 84.0, 108.0, 50.0, 18.0 ],
					"fontsize" : 12.0,
					"numoutlets" : 1,
					"outlettype" : [ "" ],
					"patching_rect" : [ 177.0, 147.0, 50.0, 18.0 ],
					"presentation" : 1,
					"id" : "obj-15"
				}

			}
, 			{
				"box" : 				{
					"maxclass" : "message",
					"text" : "Cue 1",
					"fontname" : "Arial",
					"numinlets" : 2,
					"presentation_rect" : [ 84.0, 88.0, 50.0, 18.0 ],
					"fontsize" : 12.0,
					"numoutlets" : 1,
					"outlettype" : [ "" ],
					"patching_rect" : [ 183.0, 121.0, 50.0, 18.0 ],
					"presentation" : 1,
					"id" : "obj-13"
				}

			}
, 			{
				"box" : 				{
					"maxclass" : "toggle",
					"numinlets" : 1,
					"presentation_rect" : [ 84.0, 35.0, 20.0, 20.0 ],
					"numoutlets" : 1,
					"outlettype" : [ "int" ],
					"patching_rect" : [ 177.0, 68.0, 20.0, 20.0 ],
					"presentation" : 1,
					"id" : "obj-11"
				}

			}
, 			{
				"box" : 				{
					"maxclass" : "number",
					"fontname" : "Arial",
					"numinlets" : 1,
					"presentation_rect" : [ 84.0, 61.0, 50.0, 20.0 ],
					"fontsize" : 12.0,
					"numoutlets" : 2,
					"outlettype" : [ "int", "bang" ],
					"patching_rect" : [ 177.0, 94.0, 50.0, 20.0 ],
					"presentation" : 1,
					"id" : "obj-9"
				}

			}
, 			{
				"box" : 				{
					"maxclass" : "comment",
					"text" : "Cues:",
					"fontname" : "Arial",
					"numinlets" : 1,
					"presentation_rect" : [ 14.0, 88.0, 70.0, 20.0 ],
					"fontsize" : 12.0,
					"numoutlets" : 0,
					"patching_rect" : [ 107.0, 121.0, 70.0, 20.0 ],
					"presentation" : 1,
					"id" : "obj-7"
				}

			}
, 			{
				"box" : 				{
					"maxclass" : "comment",
					"text" : "Start/Stop:",
					"fontname" : "Arial",
					"numinlets" : 1,
					"presentation_rect" : [ 14.0, 35.0, 70.0, 20.0 ],
					"fontsize" : 12.0,
					"numoutlets" : 0,
					"patching_rect" : [ 107.0, 68.0, 70.0, 20.0 ],
					"presentation" : 1,
					"id" : "obj-5"
				}

			}
, 			{
				"box" : 				{
					"maxclass" : "comment",
					"text" : "Tempo:",
					"fontname" : "Arial",
					"numinlets" : 1,
					"presentation_rect" : [ 14.0, 61.0, 70.0, 20.0 ],
					"fontsize" : 12.0,
					"numoutlets" : 0,
					"patching_rect" : [ 107.0, 94.0, 70.0, 20.0 ],
					"presentation" : 1,
					"id" : "obj-3"
				}

			}
 ],
		"lines" : [ 			{
				"patchline" : 				{
					"source" : [ "obj-19", 1 ],
					"destination" : [ "obj-12", 0 ],
					"hidden" : 0,
					"midpoints" : [  ]
				}

			}
, 			{
				"patchline" : 				{
					"source" : [ "obj-18", 1 ],
					"destination" : [ "obj-10", 0 ],
					"hidden" : 0,
					"midpoints" : [  ]
				}

			}
, 			{
				"patchline" : 				{
					"source" : [ "obj-14", 1 ],
					"destination" : [ "obj-6", 0 ],
					"hidden" : 0,
					"midpoints" : [  ]
				}

			}
, 			{
				"patchline" : 				{
					"source" : [ "obj-16", 1 ],
					"destination" : [ "obj-8", 0 ],
					"hidden" : 0,
					"midpoints" : [  ]
				}

			}
, 			{
				"patchline" : 				{
					"source" : [ "obj-9", 0 ],
					"destination" : [ "obj-30", 0 ],
					"hidden" : 0,
					"midpoints" : [  ]
				}

			}
, 			{
				"patchline" : 				{
					"source" : [ "obj-29", 0 ],
					"destination" : [ "obj-9", 0 ],
					"hidden" : 0,
					"midpoints" : [  ]
				}

			}
, 			{
				"patchline" : 				{
					"source" : [ "obj-24", 1 ],
					"destination" : [ "obj-2", 0 ],
					"hidden" : 0,
					"midpoints" : [  ]
				}

			}
, 			{
				"patchline" : 				{
					"source" : [ "obj-23", 1 ],
					"destination" : [ "obj-4", 0 ],
					"hidden" : 0,
					"midpoints" : [  ]
				}

			}
, 			{
				"patchline" : 				{
					"source" : [ "obj-22", 1 ],
					"destination" : [ "obj-1", 0 ],
					"hidden" : 0,
					"midpoints" : [  ]
				}

			}
, 			{
				"patchline" : 				{
					"source" : [ "obj-21", 1 ],
					"destination" : [ "obj-32", 0 ],
					"hidden" : 0,
					"midpoints" : [  ]
				}

			}
, 			{
				"patchline" : 				{
					"source" : [ "obj-17", 0 ],
					"destination" : [ "obj-31", 0 ],
					"hidden" : 0,
					"midpoints" : [  ]
				}

			}
, 			{
				"patchline" : 				{
					"source" : [ "obj-15", 0 ],
					"destination" : [ "obj-31", 0 ],
					"hidden" : 0,
					"midpoints" : [  ]
				}

			}
, 			{
				"patchline" : 				{
					"source" : [ "obj-13", 0 ],
					"destination" : [ "obj-31", 0 ],
					"hidden" : 0,
					"midpoints" : [  ]
				}

			}
, 			{
				"patchline" : 				{
					"source" : [ "obj-11", 0 ],
					"destination" : [ "obj-28", 0 ],
					"hidden" : 0,
					"midpoints" : [  ]
				}

			}
 ]
	}

}
