{
	"patcher" : 	{
		"fileversion" : 1,
		"rect" : [ 0.0, 44.0, 1280.0, 726.0 ],
		"bglocked" : 0,
		"defrect" : [ 0.0, 44.0, 1280.0, 726.0 ],
		"openrect" : [ 0.0, 0.0, 0.0, 0.0 ],
		"openinpresentation" : 1,
		"default_fontsize" : 12.0,
		"default_fontface" : 0,
		"default_fontname" : "Arial",
		"gridonopen" : 0,
		"gridsize" : [ 15.0, 15.0 ],
		"gridsnaponopen" : 0,
		"toolbarvisible" : 1,
		"boxanimatetime" : 200,
		"imprint" : 0,
		"enablehscroll" : 1,
		"enablevscroll" : 1,
		"devicewidth" : 0.0,
		"boxes" : [ 			{
				"box" : 				{
					"maxclass" : "bpatcher",
					"numinlets" : 2,
					"patching_rect" : [ 37.0, 745.0, 128.0, 128.0 ],
					"id" : "obj-52",
					"numoutlets" : 1,
					"name" : "changePgmOnCuesObject.maxpat",
					"outlettype" : [ "int" ],
					"args" : [ "cp1" ]
				}

			}
, 			{
				"box" : 				{
					"maxclass" : "newobj",
					"text" : "route clear",
					"numinlets" : 1,
					"patching_rect" : [ 655.275208, 534.5, 67.0, 20.0 ],
					"id" : "obj-46",
					"fontname" : "Arial",
					"numoutlets" : 2,
					"outlettype" : [ "", "" ],
					"fontsize" : 12.0
				}

			}
, 			{
				"box" : 				{
					"maxclass" : "newobj",
					"text" : "loadbang",
					"numinlets" : 1,
					"patching_rect" : [ 1938.0, 655.0, 60.0, 20.0 ],
					"id" : "obj-42",
					"fontname" : "Arial",
					"numoutlets" : 1,
					"outlettype" : [ "bang" ],
					"fontsize" : 12.0
				}

			}
, 			{
				"box" : 				{
					"maxclass" : "newobj",
					"text" : "mxj messageProcessing.IpAddress",
					"numinlets" : 2,
					"patching_rect" : [ 492.159973, 341.0, 198.0, 20.0 ],
					"id" : "obj-89",
					"fontname" : "Arial",
					"numoutlets" : 1,
					"outlettype" : [ "" ],
					"fontsize" : 12.0
				}

			}
, 			{
				"box" : 				{
					"maxclass" : "button",
					"numinlets" : 1,
					"patching_rect" : [ 530.0, 299.0, 20.0, 20.0 ],
					"id" : "obj-85",
					"numoutlets" : 1,
					"outlettype" : [ "bang" ]
				}

			}
, 			{
				"box" : 				{
					"maxclass" : "comment",
					"text" : "Brad",
					"numinlets" : 1,
					"patching_rect" : [ 727.659973, 107.0, 182.0, 23.0 ],
					"presentation" : 1,
					"id" : "obj-101",
					"fontname" : "Arial",
					"numoutlets" : 0,
					"fontface" : 1,
					"fontsize" : 14.0,
					"presentation_rect" : [ 1086.207642, 134.755356, 69.0, 23.0 ]
				}

			}
, 			{
				"box" : 				{
					"maxclass" : "comment",
					"text" : "Iman",
					"numinlets" : 1,
					"patching_rect" : [ 712.659973, 92.0, 182.0, 23.0 ],
					"presentation" : 1,
					"id" : "obj-102",
					"fontname" : "Arial",
					"numoutlets" : 0,
					"fontface" : 1,
					"fontsize" : 14.0,
					"presentation_rect" : [ 745.367615, 134.755356, 69.0, 23.0 ]
				}

			}
, 			{
				"box" : 				{
					"maxclass" : "comment",
					"text" : "Shuo",
					"numinlets" : 1,
					"patching_rect" : [ 697.659973, 77.0, 182.0, 23.0 ],
					"presentation" : 1,
					"id" : "obj-103",
					"fontname" : "Arial",
					"numoutlets" : 0,
					"fontface" : 1,
					"fontsize" : 14.0,
					"presentation_rect" : [ 414.010651, 134.755356, 69.0, 23.0 ]
				}

			}
, 			{
				"box" : 				{
					"maxclass" : "comment",
					"text" : "Juan",
					"numinlets" : 1,
					"patching_rect" : [ 682.659973, 62.0, 182.0, 23.0 ],
					"presentation" : 1,
					"id" : "obj-104",
					"fontname" : "Arial",
					"numoutlets" : 0,
					"fontface" : 1,
					"fontsize" : 14.0,
					"presentation_rect" : [ 106.207657, 134.755356, 69.0, 23.0 ]
				}

			}
, 			{
				"box" : 				{
					"maxclass" : "comment",
					"text" : "Cian",
					"numinlets" : 1,
					"patching_rect" : [ 712.659973, 92.0, 182.0, 23.0 ],
					"presentation" : 1,
					"id" : "obj-100",
					"fontname" : "Arial",
					"numoutlets" : 0,
					"fontface" : 1,
					"fontsize" : 14.0,
					"presentation_rect" : [ 1086.207642, 4.882339, 69.0, 23.0 ]
				}

			}
, 			{
				"box" : 				{
					"maxclass" : "comment",
					"text" : "Xinyuan",
					"numinlets" : 1,
					"patching_rect" : [ 697.659973, 77.0, 182.0, 23.0 ],
					"presentation" : 1,
					"id" : "obj-99",
					"fontname" : "Arial",
					"numoutlets" : 0,
					"fontface" : 1,
					"fontsize" : 14.0,
					"presentation_rect" : [ 745.367615, 4.882339, 69.0, 23.0 ]
				}

			}
, 			{
				"box" : 				{
					"maxclass" : "comment",
					"text" : "Chih-Wei",
					"numinlets" : 1,
					"patching_rect" : [ 682.659973, 62.0, 182.0, 23.0 ],
					"presentation" : 1,
					"id" : "obj-98",
					"fontname" : "Arial",
					"numoutlets" : 0,
					"fontface" : 1,
					"fontsize" : 14.0,
					"presentation_rect" : [ 424.906525, 4.882339, 69.0, 23.0 ]
				}

			}
, 			{
				"box" : 				{
					"maxclass" : "comment",
					"text" : "Aneesh",
					"numinlets" : 1,
					"patching_rect" : [ 667.659973, 47.0, 182.0, 23.0 ],
					"presentation" : 1,
					"id" : "obj-43",
					"fontname" : "Arial",
					"numoutlets" : 0,
					"fontface" : 1,
					"fontsize" : 14.0,
					"presentation_rect" : [ 106.207657, 4.882339, 69.0, 23.0 ]
				}

			}
, 			{
				"box" : 				{
					"maxclass" : "newobj",
					"text" : "udpreceive 7342",
					"numinlets" : 1,
					"patching_rect" : [ 212.587311, 562.067932, 99.0, 20.0 ],
					"id" : "obj-25",
					"fontname" : "Arial",
					"numoutlets" : 1,
					"outlettype" : [ "" ],
					"fontsize" : 12.0
				}

			}
, 			{
				"box" : 				{
					"maxclass" : "comment",
					"text" : "Start/Stop:",
					"linecount" : 2,
					"numinlets" : 1,
					"patching_rect" : [ 276.659973, 65.720009, 103.0, 62.0 ],
					"presentation" : 1,
					"id" : "obj-23",
					"fontname" : "Arial",
					"numoutlets" : 0,
					"fontsize" : 24.0,
					"presentation_rect" : [ 42.207657, 284.376831, 129.052551, 34.0 ]
				}

			}
, 			{
				"box" : 				{
					"maxclass" : "comment",
					"text" : "Instructions:",
					"linecount" : 2,
					"numinlets" : 1,
					"patching_rect" : [ 258.019989, 109.0, 103.0, 62.0 ],
					"presentation" : 1,
					"id" : "obj-5",
					"fontname" : "Arial",
					"numoutlets" : 0,
					"fontsize" : 24.0,
					"presentation_rect" : [ 535.519897, 284.376831, 141.886169, 34.0 ]
				}

			}
, 			{
				"box" : 				{
					"maxclass" : "bpatcher",
					"numinlets" : 3,
					"patching_rect" : [ 20.538025, 671.787048, 333.461975, 47.741028 ],
					"presentation" : 1,
					"id" : "obj-8",
					"numoutlets" : 0,
					"name" : "scoreDisplayObject.maxpat",
					"args" : [ "scoreView" ],
					"presentation_rect" : [ 671.406128, 279.376831, 335.0, 38.5 ]
				}

			}
, 			{
				"box" : 				{
					"maxclass" : "comment",
					"text" : "Get Preset",
					"numinlets" : 1,
					"patching_rect" : [ 742.159973, 1130.0, 88.0, 20.0 ],
					"presentation" : 1,
					"id" : "obj-76",
					"fontname" : "Arial",
					"numoutlets" : 0,
					"fontsize" : 12.0,
					"presentation_rect" : [ 319.459595, 607.172913, 88.0, 20.0 ]
				}

			}
, 			{
				"box" : 				{
					"maxclass" : "comment",
					"text" : "Store Preset",
					"numinlets" : 1,
					"patching_rect" : [ 878.659973, 1130.0, 88.0, 20.0 ],
					"presentation" : 1,
					"id" : "obj-75",
					"fontname" : "Arial",
					"numoutlets" : 0,
					"fontsize" : 12.0,
					"presentation_rect" : [ 140.459595, 606.172913, 79.0, 20.0 ]
				}

			}
, 			{
				"box" : 				{
					"maxclass" : "button",
					"numinlets" : 1,
					"patching_rect" : [ 834.326721, 1169.0, 20.0, 20.0 ],
					"presentation" : 1,
					"id" : "obj-106",
					"numoutlets" : 1,
					"outlettype" : [ "bang" ],
					"presentation_rect" : [ 225.459595, 606.172913, 20.0, 20.0 ]
				}

			}
, 			{
				"box" : 				{
					"maxclass" : "umenu",
					"numinlets" : 1,
					"types" : [  ],
					"patching_rect" : [ 761.159973, 1169.0, 50.0, 20.0 ],
					"presentation" : 1,
					"id" : "obj-95",
					"fontname" : "Arial",
					"numoutlets" : 3,
					"outlettype" : [ "int", "", "" ],
					"fontsize" : 12.0,
					"presentation_rect" : [ 390.619568, 606.172913, 50.0, 20.0 ],
					"items" : [ 0, ",", 1, ",", 2, ",", 3, ",", 4, ",", 5, ",", 6, ",", 7, ",", 8, ",", 9 ]
				}

			}
, 			{
				"box" : 				{
					"maxclass" : "umenu",
					"numinlets" : 1,
					"types" : [  ],
					"patching_rect" : [ 868.659973, 1169.0, 50.0, 20.0 ],
					"presentation" : 1,
					"id" : "obj-94",
					"fontname" : "Arial",
					"numoutlets" : 3,
					"outlettype" : [ "int", "", "" ],
					"fontsize" : 12.0,
					"presentation_rect" : [ 251.119568, 606.172913, 50.0, 20.0 ],
					"items" : [ 0, ",", 1, ",", 2, ",", 3, ",", 4, ",", 5, ",", 6, ",", 7, ",", 8, ",", 9 ]
				}

			}
, 			{
				"box" : 				{
					"maxclass" : "newobj",
					"text" : "mxj messageProcessing.Preset",
					"numinlets" : 3,
					"patching_rect" : [ 817.833252, 1263.0, 179.0, 20.0 ],
					"id" : "obj-45",
					"fontname" : "Arial",
					"numoutlets" : 1,
					"outlettype" : [ "" ],
					"fontsize" : 12.0
				}

			}
, 			{
				"box" : 				{
					"maxclass" : "newobj",
					"text" : "join 2",
					"numinlets" : 2,
					"patching_rect" : [ 892.159973, 1224.0, 39.0, 20.0 ],
					"id" : "obj-49",
					"fontname" : "Arial",
					"numoutlets" : 1,
					"outlettype" : [ "" ],
					"fontsize" : 12.0
				}

			}
, 			{
				"box" : 				{
					"maxclass" : "number",
					"numinlets" : 1,
					"patching_rect" : [ 293.0, 252.0, 50.0, 20.0 ],
					"id" : "obj-58",
					"fontname" : "Arial",
					"numoutlets" : 2,
					"outlettype" : [ "int", "bang" ],
					"fontsize" : 12.0
				}

			}
, 			{
				"box" : 				{
					"maxclass" : "message",
					"numinlets" : 2,
					"patching_rect" : [ 467.0, 571.0, 50.0, 18.0 ],
					"id" : "obj-48",
					"fontname" : "Arial",
					"numoutlets" : 1,
					"outlettype" : [ "" ],
					"fontsize" : 12.0
				}

			}
, 			{
				"box" : 				{
					"maxclass" : "message",
					"text" : "1",
					"numinlets" : 2,
					"patching_rect" : [ 284.512817, 592.692322, 50.0, 18.0 ],
					"id" : "obj-44",
					"fontname" : "Arial",
					"numoutlets" : 1,
					"outlettype" : [ "" ],
					"fontsize" : 12.0
				}

			}
, 			{
				"box" : 				{
					"maxclass" : "button",
					"numinlets" : 1,
					"patching_rect" : [ 334.0, 372.0, 20.0, 20.0 ],
					"id" : "obj-32",
					"numoutlets" : 1,
					"outlettype" : [ "bang" ]
				}

			}
, 			{
				"box" : 				{
					"maxclass" : "bpatcher",
					"numinlets" : 1,
					"patching_rect" : [ 162.5, 1613.0, 312.0, 170.0 ],
					"presentation" : 1,
					"id" : "obj-27",
					"numoutlets" : 1,
					"name" : "delayObject.maxpat",
					"outlettype" : [ "signal" ],
					"args" : [ "dy1" ],
					"presentation_rect" : [ 1017.69519, 259.055359, 274.512451, 84.642975 ]
				}

			}
, 			{
				"box" : 				{
					"maxclass" : "bpatcher",
					"numinlets" : 1,
					"patching_rect" : [ 177.5, 1459.0, 297.0, 154.0 ],
					"presentation" : 1,
					"id" : "obj-9",
					"numoutlets" : 1,
					"name" : "lowpassObject.maxpat",
					"outlettype" : [ "signal" ],
					"args" : [ "ft1" ],
					"presentation_rect" : [ 1018.69519, 335.255371, 274.512451, 94.663055 ]
				}

			}
, 			{
				"box" : 				{
					"maxclass" : "bpatcher",
					"numinlets" : 1,
					"patching_rect" : [ 183.0, 1103.0, 298.0, 152.0 ],
					"presentation" : 1,
					"id" : "obj-38",
					"numoutlets" : 1,
					"name" : "flangingObject.maxpat",
					"outlettype" : [ "signal" ],
					"args" : [ "fg1" ],
					"presentation_rect" : [ 1018.69519, 429.918427, 274.512451, 87.579605 ]
				}

			}
, 			{
				"box" : 				{
					"maxclass" : "bpatcher",
					"numinlets" : 1,
					"patching_rect" : [ 177.5, 1272.0, 309.0, 159.0 ],
					"presentation" : 1,
					"id" : "obj-16",
					"numoutlets" : 1,
					"name" : "reverbObject.maxpat",
					"outlettype" : [ "signal" ],
					"args" : [ "rv1" ],
					"presentation_rect" : [ 1018.69519, 516.885925, 274.512451, 98.287048 ]
				}

			}
, 			{
				"box" : 				{
					"maxclass" : "newobj",
					"text" : "- 0.1",
					"numinlets" : 2,
					"patching_rect" : [ 1801.0, 732.0, 35.0, 20.0 ],
					"id" : "obj-29",
					"fontname" : "Arial",
					"numoutlets" : 1,
					"outlettype" : [ "float" ],
					"fontsize" : 12.0
				}

			}
, 			{
				"box" : 				{
					"maxclass" : "comment",
					"text" : "GA Param settings\n1. Crossover rate 1-100 \n(This sets how fast you reach the solution by directed search)\n2. Mutation rate - 1-1000\n(This decides how much random genes mutate, its effects on speed can be positive or negative)\n3. Sparsity\nA control that sets only one value in a time step, so multiple notes don't play at the same step",
					"linecount" : 10,
					"numinlets" : 1,
					"patching_rect" : [ 1575.0, 923.0, 290.0, 144.0 ],
					"id" : "obj-28",
					"fontname" : "Arial",
					"numoutlets" : 0,
					"fontsize" : 12.0
				}

			}
, 			{
				"box" : 				{
					"maxclass" : "comment",
					"text" : "Toggle \nSparsity",
					"linecount" : 2,
					"numinlets" : 1,
					"patching_rect" : [ 1882.0, 627.0, 56.0, 34.0 ],
					"id" : "obj-24",
					"fontname" : "Arial",
					"numoutlets" : 0,
					"fontsize" : 12.0
				}

			}
, 			{
				"box" : 				{
					"maxclass" : "toggle",
					"numinlets" : 1,
					"patching_rect" : [ 1892.0, 671.787048, 20.0, 20.0 ],
					"id" : "obj-14",
					"numoutlets" : 1,
					"outlettype" : [ "int" ]
				}

			}
, 			{
				"box" : 				{
					"maxclass" : "comment",
					"text" : "Clear Sequencer",
					"numinlets" : 1,
					"patching_rect" : [ 540.159973, 507.839996, 150.0, 20.0 ],
					"presentation" : 1,
					"id" : "obj-17",
					"fontname" : "Arial",
					"numoutlets" : 0,
					"fontsize" : 12.0,
					"presentation_rect" : [ 465.907532, 607.172913, 105.0, 20.0 ]
				}

			}
, 			{
				"box" : 				{
					"maxclass" : "message",
					"text" : "clear",
					"numinlets" : 2,
					"patching_rect" : [ 605.159973, 571.839966, 37.0, 18.0 ],
					"id" : "obj-15",
					"fontname" : "Arial",
					"numoutlets" : 1,
					"outlettype" : [ "" ],
					"fontsize" : 12.0
				}

			}
, 			{
				"box" : 				{
					"maxclass" : "button",
					"numinlets" : 1,
					"patching_rect" : [ 600.419861, 544.0, 20.0, 20.0 ],
					"presentation" : 1,
					"id" : "obj-12",
					"numoutlets" : 1,
					"outlettype" : [ "bang" ],
					"presentation_rect" : [ 570.907471, 607.172913, 20.0, 20.0 ]
				}

			}
, 			{
				"box" : 				{
					"maxclass" : "message",
					"text" : "1",
					"numinlets" : 2,
					"patching_rect" : [ 654.0, 991.0, 50.0, 18.0 ],
					"id" : "obj-90",
					"fontname" : "Arial",
					"numoutlets" : 1,
					"outlettype" : [ "" ],
					"fontsize" : 12.0
				}

			}
, 			{
				"box" : 				{
					"maxclass" : "newobj",
					"text" : "route",
					"numinlets" : 1,
					"patching_rect" : [ 591.419861, 990.0, 38.0, 20.0 ],
					"id" : "obj-88",
					"fontname" : "Arial",
					"numoutlets" : 2,
					"outlettype" : [ "", "" ],
					"fontsize" : 12.0
				}

			}
, 			{
				"box" : 				{
					"maxclass" : "newobj",
					"text" : "route",
					"numinlets" : 1,
					"patching_rect" : [ 197.917496, 919.170044, 38.0, 20.0 ],
					"id" : "obj-87",
					"fontname" : "Arial",
					"numoutlets" : 2,
					"outlettype" : [ "", "" ],
					"fontsize" : 12.0
				}

			}
, 			{
				"box" : 				{
					"maxclass" : "comment",
					"text" : "Mutation Rate",
					"linecount" : 2,
					"numinlets" : 1,
					"patching_rect" : [ 1805.25, 635.0, 67.0, 34.0 ],
					"id" : "obj-86",
					"fontname" : "Arial",
					"numoutlets" : 0,
					"fontsize" : 12.0
				}

			}
, 			{
				"box" : 				{
					"maxclass" : "comment",
					"text" : "Crossover Rate",
					"linecount" : 2,
					"numinlets" : 1,
					"patching_rect" : [ 1710.0, 635.0, 67.0, 34.0 ],
					"id" : "obj-84",
					"fontname" : "Arial",
					"numoutlets" : 0,
					"fontsize" : 12.0
				}

			}
, 			{
				"box" : 				{
					"maxclass" : "newobj",
					"text" : "/ 1000",
					"numinlets" : 2,
					"patching_rect" : [ 1805.25, 698.787048, 44.0, 20.0 ],
					"id" : "obj-81",
					"fontname" : "Arial",
					"numoutlets" : 1,
					"outlettype" : [ "int" ],
					"fontsize" : 12.0
				}

			}
, 			{
				"box" : 				{
					"maxclass" : "number",
					"numinlets" : 1,
					"patching_rect" : [ 1805.25, 671.787048, 50.0, 20.0 ],
					"id" : "obj-82",
					"fontname" : "Arial",
					"numoutlets" : 2,
					"outlettype" : [ "int", "bang" ],
					"fontsize" : 12.0,
					"minimum" : 0,
					"maximum" : 1000
				}

			}
, 			{
				"box" : 				{
					"maxclass" : "newobj",
					"text" : "/ 1000",
					"numinlets" : 2,
					"patching_rect" : [ 1716.25, 698.787048, 44.0, 20.0 ],
					"id" : "obj-78",
					"fontname" : "Arial",
					"numoutlets" : 1,
					"outlettype" : [ "int" ],
					"fontsize" : 12.0
				}

			}
, 			{
				"box" : 				{
					"maxclass" : "number",
					"numinlets" : 1,
					"patching_rect" : [ 1716.25, 671.787048, 50.0, 20.0 ],
					"id" : "obj-57",
					"fontname" : "Arial",
					"numoutlets" : 2,
					"outlettype" : [ "int", "bang" ],
					"fontsize" : 12.0,
					"minimum" : 0,
					"maximum" : 100
				}

			}
, 			{
				"box" : 				{
					"maxclass" : "comment",
					"text" : "Current GA Target ID",
					"numinlets" : 1,
					"patching_rect" : [ 1567.0, 848.0, 131.0, 20.0 ],
					"presentation" : 1,
					"id" : "obj-80",
					"fontname" : "Arial",
					"numoutlets" : 0,
					"fontsize" : 12.0,
					"presentation_rect" : [ 680.883789, 409.918427, 153.831528, 20.0 ]
				}

			}
, 			{
				"box" : 				{
					"maxclass" : "comment",
					"text" : "GA Rhythm Generator",
					"numinlets" : 1,
					"patching_rect" : [ 1579.0, 507.839996, 195.0, 25.0 ],
					"presentation" : 1,
					"id" : "obj-13",
					"fontname" : "Arial",
					"numoutlets" : 0,
					"fontsize" : 16.0,
					"presentation_rect" : [ 678.207642, 360.233734, 178.831528, 25.0 ]
				}

			}
, 			{
				"box" : 				{
					"maxclass" : "button",
					"numinlets" : 1,
					"patching_rect" : [ 1520.0, 534.5, 46.0, 46.0 ],
					"presentation" : 1,
					"id" : "obj-30",
					"numoutlets" : 1,
					"outlettype" : [ "bang" ],
					"presentation_rect" : [ 887.79126, 346.512726, 52.442039, 52.442039 ]
				}

			}
, 			{
				"box" : 				{
					"maxclass" : "number",
					"numinlets" : 1,
					"patching_rect" : [ 1665.25, 828.0, 50.0, 20.0 ],
					"presentation" : 1,
					"id" : "obj-79",
					"fontname" : "Arial",
					"numoutlets" : 2,
					"outlettype" : [ "int", "bang" ],
					"fontsize" : 12.0,
					"presentation_rect" : [ 887.79126, 409.918427, 54.831528, 20.0 ]
				}

			}
, 			{
				"box" : 				{
					"maxclass" : "comment",
					"text" : "Current GA Pattern Preview",
					"numinlets" : 1,
					"patching_rect" : [ 1191.75, 851.0, 213.0, 25.0 ],
					"presentation" : 1,
					"id" : "obj-31",
					"fontname" : "Arial",
					"numoutlets" : 0,
					"fontsize" : 16.0,
					"presentation_rect" : [ 680.883789, 448.217529, 212.831528, 25.0 ]
				}

			}
, 			{
				"box" : 				{
					"maxclass" : "bpatcher",
					"numinlets" : 2,
					"patching_rect" : [ 1196.0, 888.170044, 306.0, 106.0 ],
					"presentation" : 1,
					"id" : "obj-19",
					"numoutlets" : 1,
					"name" : "GAPreviewerObject.maxpat",
					"outlettype" : [ "" ],
					"args" : [ "gav1" ],
					"presentation_rect" : [ 671.406128, 477.208221, 310.831543, 112.442039 ]
				}

			}
, 			{
				"box" : 				{
					"maxclass" : "panel",
					"numinlets" : 1,
					"patching_rect" : [ 1046.02002, 919.170044, 128.0, 128.0 ],
					"presentation" : 1,
					"id" : "obj-37",
					"numoutlets" : 0,
					"mode" : 1,
					"presentation_rect" : [ 641.404358, 336.496521, 370.606567, 264.442047 ],
					"bgcolor" : [ 0.399093, 0.386033, 0.666667, 1.0 ]
				}

			}
, 			{
				"box" : 				{
					"maxclass" : "newobj",
					"text" : "mxj messageProcessing.Format",
					"numinlets" : 1,
					"patching_rect" : [ 1119.97998, 85.720001, 182.0, 20.0 ],
					"id" : "obj-53",
					"fontname" : "Arial",
					"numoutlets" : 1,
					"outlettype" : [ "" ],
					"fontsize" : 12.0
				}

			}
, 			{
				"box" : 				{
					"maxclass" : "newobj",
					"text" : "prepend seq",
					"numinlets" : 1,
					"patching_rect" : [ 868.659973, 888.170044, 77.0, 20.0 ],
					"id" : "obj-39",
					"fontname" : "Arial",
					"numoutlets" : 1,
					"outlettype" : [ "" ],
					"fontsize" : 12.0
				}

			}
, 			{
				"box" : 				{
					"maxclass" : "newobj",
					"text" : "mxj messageProcessing.Format",
					"numinlets" : 1,
					"patching_rect" : [ 477.159973, 376.627014, 182.0, 20.0 ],
					"id" : "obj-3",
					"fontname" : "Arial",
					"numoutlets" : 1,
					"outlettype" : [ "" ],
					"fontsize" : 12.0
				}

			}
, 			{
				"box" : 				{
					"maxclass" : "newobj",
					"text" : "route sc",
					"numinlets" : 1,
					"patching_rect" : [ 591.419861, 956.18927, 53.0, 20.0 ],
					"id" : "obj-22",
					"fontname" : "Arial",
					"numoutlets" : 2,
					"outlettype" : [ "", "" ],
					"fontsize" : 12.0
				}

			}
, 			{
				"box" : 				{
					"maxclass" : "comment",
					"text" : "How GA works?\n1) set target as solution from the other users\n2) set source\n3) hit the bang to evolve and generate one pattern\n",
					"linecount" : 4,
					"numinlets" : 1,
					"patching_rect" : [ 1274.0, 1023.0, 299.0, 62.0 ],
					"id" : "obj-10",
					"fontname" : "Arial",
					"numoutlets" : 0,
					"fontsize" : 12.0
				}

			}
, 			{
				"box" : 				{
					"maxclass" : "message",
					"text" : "7",
					"numinlets" : 2,
					"patching_rect" : [ 1785.5, 774.0, 32.5, 18.0 ],
					"id" : "obj-77",
					"fontname" : "Arial",
					"numoutlets" : 1,
					"outlettype" : [ "" ],
					"fontsize" : 12.0
				}

			}
, 			{
				"box" : 				{
					"maxclass" : "message",
					"text" : "6",
					"numinlets" : 2,
					"patching_rect" : [ 1737.75, 774.0, 32.5, 18.0 ],
					"id" : "obj-74",
					"fontname" : "Arial",
					"numoutlets" : 1,
					"outlettype" : [ "" ],
					"fontsize" : 12.0
				}

			}
, 			{
				"box" : 				{
					"maxclass" : "message",
					"text" : "5",
					"numinlets" : 2,
					"patching_rect" : [ 1705.25, 774.0, 32.5, 18.0 ],
					"id" : "obj-73",
					"fontname" : "Arial",
					"numoutlets" : 1,
					"outlettype" : [ "" ],
					"fontsize" : 12.0
				}

			}
, 			{
				"box" : 				{
					"maxclass" : "message",
					"text" : "4",
					"numinlets" : 2,
					"patching_rect" : [ 1665.25, 774.0, 32.5, 18.0 ],
					"id" : "obj-63",
					"fontname" : "Arial",
					"numoutlets" : 1,
					"outlettype" : [ "" ],
					"fontsize" : 12.0
				}

			}
, 			{
				"box" : 				{
					"maxclass" : "message",
					"text" : "3",
					"numinlets" : 2,
					"patching_rect" : [ 1629.75, 774.0, 32.5, 18.0 ],
					"id" : "obj-62",
					"fontname" : "Arial",
					"numoutlets" : 1,
					"outlettype" : [ "" ],
					"fontsize" : 12.0
				}

			}
, 			{
				"box" : 				{
					"maxclass" : "message",
					"text" : "2",
					"numinlets" : 2,
					"patching_rect" : [ 1597.25, 774.0, 32.5, 18.0 ],
					"id" : "obj-61",
					"fontname" : "Arial",
					"numoutlets" : 1,
					"outlettype" : [ "" ],
					"fontsize" : 12.0
				}

			}
, 			{
				"box" : 				{
					"maxclass" : "message",
					"text" : "1",
					"numinlets" : 2,
					"patching_rect" : [ 1557.75, 774.0, 32.5, 18.0 ],
					"id" : "obj-60",
					"fontname" : "Arial",
					"numoutlets" : 1,
					"outlettype" : [ "" ],
					"fontsize" : 12.0
				}

			}
, 			{
				"box" : 				{
					"maxclass" : "message",
					"text" : "0",
					"numinlets" : 2,
					"patching_rect" : [ 1525.75, 774.0, 32.5, 18.0 ],
					"id" : "obj-59",
					"fontname" : "Arial",
					"numoutlets" : 1,
					"outlettype" : [ "" ],
					"fontsize" : 12.0
				}

			}
, 			{
				"box" : 				{
					"maxclass" : "newobj",
					"text" : "loadmess 7",
					"numinlets" : 1,
					"patching_rect" : [ 199.519989, 65.720009, 72.0, 20.0 ],
					"id" : "obj-40",
					"fontname" : "Arial",
					"numoutlets" : 1,
					"outlettype" : [ "" ],
					"fontsize" : 12.0
				}

			}
, 			{
				"box" : 				{
					"maxclass" : "newobj",
					"text" : "mxj Genetic.GeneticMorphing",
					"numinlets" : 6,
					"patching_rect" : [ 1597.25, 732.0, 169.0, 20.0 ],
					"id" : "obj-26",
					"fontname" : "Arial",
					"numoutlets" : 2,
					"outlettype" : [ "", "" ],
					"fontsize" : 12.0
				}

			}
, 			{
				"box" : 				{
					"maxclass" : "newobj",
					"text" : "route ctrl seq cue ping",
					"numinlets" : 1,
					"patching_rect" : [ 359.659973, 334.127014, 129.0, 20.0 ],
					"id" : "obj-41",
					"fontname" : "Arial",
					"numoutlets" : 5,
					"outlettype" : [ "", "", "", "", "" ],
					"fontsize" : 12.0
				}

			}
, 			{
				"box" : 				{
					"maxclass" : "newobj",
					"text" : "mxj messageProcessing.Filter",
					"numinlets" : 2,
					"patching_rect" : [ 477.159973, 440.0, 171.0, 20.0 ],
					"id" : "obj-55",
					"fontname" : "Arial",
					"numoutlets" : 1,
					"outlettype" : [ "" ],
					"fontsize" : 12.0
				}

			}
, 			{
				"box" : 				{
					"maxclass" : "bpatcher",
					"numinlets" : 4,
					"patching_rect" : [ 359.659973, 621.258972, 528.0, 258.0 ],
					"presentation" : 1,
					"id" : "obj-11",
					"numoutlets" : 4,
					"name" : "sequencerObjectCopy.maxpat",
					"outlettype" : [ "bang", "bang", "bang", "" ],
					"args" : [ "seqN" ],
					"presentation_rect" : [ 114.09877, 328.496521, 522.15387, 275.653748 ]
				}

			}
, 			{
				"box" : 				{
					"maxclass" : "bpatcher",
					"numinlets" : 2,
					"patching_rect" : [ 1613.0, 327.723022, 292.0, 96.299988 ],
					"presentation" : 1,
					"id" : "obj-72",
					"numoutlets" : 3,
					"name" : "sequencerViewerObjectCopy.maxpat",
					"outlettype" : [ "", "", "" ],
					"args" : [ "sqv7" ],
					"presentation_rect" : [ 998.207642, 157.755356, 301.0, 101.299988 ]
				}

			}
, 			{
				"box" : 				{
					"maxclass" : "bpatcher",
					"numinlets" : 2,
					"patching_rect" : [ 1313.0, 327.723022, 287.5, 96.299988 ],
					"presentation" : 1,
					"id" : "obj-71",
					"numoutlets" : 3,
					"name" : "sequencerViewerObjectCopy.maxpat",
					"outlettype" : [ "", "", "" ],
					"args" : [ "sqv6" ],
					"presentation_rect" : [ 678.207642, 157.755356, 301.0, 101.299988 ]
				}

			}
, 			{
				"box" : 				{
					"maxclass" : "bpatcher",
					"numinlets" : 2,
					"patching_rect" : [ 1013.97998, 327.723022, 288.0, 96.299988 ],
					"presentation" : 1,
					"id" : "obj-70",
					"numoutlets" : 3,
					"name" : "sequencerViewerObjectCopy.maxpat",
					"outlettype" : [ "", "", "" ],
					"args" : [ "sqv5" ],
					"presentation_rect" : [ 360.207672, 157.755356, 301.0, 101.299988 ]
				}

			}
, 			{
				"box" : 				{
					"maxclass" : "bpatcher",
					"numinlets" : 2,
					"patching_rect" : [ 710.0, 327.723022, 290.97998, 96.299988 ],
					"presentation" : 1,
					"id" : "obj-69",
					"numoutlets" : 3,
					"name" : "sequencerViewerObjectCopy.maxpat",
					"outlettype" : [ "", "", "" ],
					"args" : [ "sqv4" ],
					"presentation_rect" : [ 36.207657, 157.755356, 301.0, 101.299988 ]
				}

			}
, 			{
				"box" : 				{
					"maxclass" : "bpatcher",
					"numinlets" : 2,
					"patching_rect" : [ 1613.0, 208.850006, 292.0, 96.299988 ],
					"presentation" : 1,
					"id" : "obj-68",
					"numoutlets" : 3,
					"name" : "sequencerViewerObjectCopy.maxpat",
					"outlettype" : [ "", "", "" ],
					"args" : [ "sqv3" ],
					"presentation_rect" : [ 996.207642, 27.882339, 301.0, 101.299988 ]
				}

			}
, 			{
				"box" : 				{
					"maxclass" : "bpatcher",
					"numinlets" : 2,
					"patching_rect" : [ 1309.5, 208.850006, 291.0, 96.299988 ],
					"presentation" : 1,
					"id" : "obj-67",
					"numoutlets" : 3,
					"name" : "sequencerViewerObjectCopy.maxpat",
					"outlettype" : [ "", "", "" ],
					"args" : [ "sqv2" ],
					"presentation_rect" : [ 676.207642, 27.882339, 301.0, 101.299988 ]
				}

			}
, 			{
				"box" : 				{
					"maxclass" : "bpatcher",
					"numinlets" : 2,
					"patching_rect" : [ 1013.97998, 208.850006, 288.0, 96.299988 ],
					"presentation" : 1,
					"id" : "obj-66",
					"numoutlets" : 3,
					"name" : "sequencerViewerObjectCopy.maxpat",
					"outlettype" : [ "", "", "" ],
					"args" : [ "sqv1" ],
					"presentation_rect" : [ 358.207672, 27.882339, 301.0, 101.299988 ]
				}

			}
, 			{
				"box" : 				{
					"maxclass" : "bpatcher",
					"numinlets" : 2,
					"patching_rect" : [ 710.0, 208.850006, 290.97998, 96.299988 ],
					"presentation" : 1,
					"id" : "obj-65",
					"numoutlets" : 3,
					"name" : "sequencerViewerObjectCopy.maxpat",
					"outlettype" : [ "", "", "" ],
					"args" : [ "sqv0" ],
					"presentation_rect" : [ 34.207657, 27.882339, 301.0, 101.299988 ]
				}

			}
, 			{
				"box" : 				{
					"maxclass" : "newobj",
					"text" : "mxj messageProcessing.Route",
					"numinlets" : 1,
					"patching_rect" : [ 1119.97998, 121.720009, 176.0, 20.0 ],
					"id" : "obj-64",
					"fontname" : "Arial",
					"numoutlets" : 8,
					"outlettype" : [ "", "", "", "", "", "", "", "" ],
					"fontsize" : 12.0
				}

			}
, 			{
				"box" : 				{
					"maxclass" : "umenu",
					"varname" : "umenu",
					"numinlets" : 1,
					"types" : [  ],
					"patching_rect" : [ 243.019989, 146.72699, 128.0, 34.0 ],
					"presentation" : 1,
					"id" : "obj-54",
					"fontname" : "Arial",
					"numoutlets" : 3,
					"outlettype" : [ "int", "", "" ],
					"fontsize" : 24.0,
					"presentation_rect" : [ 383.207672, 284.376831, 130.605957, 34.0 ],
					"items" : [ "Aneesh", ",", "Chih-Wei", ",", "Xinyuan", ",", "Cian", ",", "Juan", ",", "Shuo", ",", "Iman", ",", "DefaultUser" ]
				}

			}
, 			{
				"box" : 				{
					"maxclass" : "comment",
					"text" : "Username:",
					"linecount" : 2,
					"numinlets" : 1,
					"patching_rect" : [ 243.019989, 94.0, 103.0, 62.0 ],
					"presentation" : 1,
					"id" : "obj-47",
					"fontname" : "Arial",
					"numoutlets" : 0,
					"fontsize" : 24.0,
					"presentation_rect" : [ 246.207672, 284.376831, 129.052551, 34.0 ]
				}

			}
, 			{
				"box" : 				{
					"maxclass" : "comment",
					"text" : "Inlets:\n1. Send Serial Data (Bang)\n2. Serial Data Input\nOutlets:\n1. Serial Data Output",
					"linecount" : 5,
					"numinlets" : 1,
					"patching_rect" : [ 33.538021, 30.719997, 158.0, 75.0 ],
					"id" : "obj-18",
					"fontname" : "Arial",
					"numoutlets" : 0,
					"fontsize" : 12.0
				}

			}
, 			{
				"box" : 				{
					"maxclass" : "comment",
					"text" : "Inlets:\n1. Trigger Bang\n2. Note Number\n3. Duration (ms)\n4. MIDI Program Num\n5. Volume (0-127)\nOutlets:\n1. Synthesized  Audio",
					"linecount" : 8,
					"numinlets" : 1,
					"patching_rect" : [ 33.538021, 285.627014, 158.0, 117.0 ],
					"id" : "obj-7",
					"fontname" : "Arial",
					"numoutlets" : 0,
					"fontsize" : 12.0
				}

			}
, 			{
				"box" : 				{
					"maxclass" : "comment",
					"text" : "Inlets:\n1. Start/Stop (1/0)\n2. Tempo (Int)\n3. Send Serial Data (Bang)\n4. Serial Data Input\n5. User ID\nOutlets:\n1. Row 1 Bang\n2. Row 2 Bang\n3. Row 3 Bang\n4. Serial Data Output",
					"linecount" : 11,
					"numinlets" : 1,
					"patching_rect" : [ 33.538021, 123.126984, 158.0, 158.0 ],
					"id" : "obj-6",
					"fontname" : "Arial",
					"numoutlets" : 0,
					"fontsize" : 12.0
				}

			}
, 			{
				"box" : 				{
					"maxclass" : "newobj",
					"text" : "route vol",
					"numinlets" : 1,
					"patching_rect" : [ 197.917496, 875.5, 57.0, 20.0 ],
					"id" : "obj-4",
					"fontname" : "Arial",
					"numoutlets" : 2,
					"outlettype" : [ "", "" ],
					"fontsize" : 12.0
				}

			}
, 			{
				"box" : 				{
					"maxclass" : "toggle",
					"numinlets" : 1,
					"patching_rect" : [ 359.659973, 571.839966, 20.0, 20.0 ],
					"presentation" : 1,
					"id" : "obj-33",
					"numoutlets" : 1,
					"outlettype" : [ "int" ],
					"presentation_rect" : [ 180.038422, 279.376831, 44.157646, 44.157646 ]
				}

			}
, 			{
				"box" : 				{
					"maxclass" : "newobj",
					"text" : "route start tempo",
					"numinlets" : 1,
					"patching_rect" : [ 359.659973, 534.5, 101.0, 20.0 ],
					"id" : "obj-34",
					"fontname" : "Arial",
					"numoutlets" : 3,
					"outlettype" : [ "", "", "" ],
					"fontsize" : 12.0
				}

			}
, 			{
				"box" : 				{
					"maxclass" : "number",
					"numinlets" : 1,
					"patching_rect" : [ 400.659973, 571.839966, 50.0, 20.0 ],
					"id" : "obj-35",
					"fontname" : "Arial",
					"numoutlets" : 2,
					"outlettype" : [ "int", "bang" ],
					"fontsize" : 12.0
				}

			}
, 			{
				"box" : 				{
					"maxclass" : "newobj",
					"text" : "mxj net.maxhole",
					"numinlets" : 1,
					"patching_rect" : [ 359.659973, 279.02301, 98.0, 20.0 ],
					"id" : "obj-36",
					"fontname" : "Arial",
					"numoutlets" : 1,
					"outlettype" : [ "" ],
					"fontsize" : 12.0
				}

			}
, 			{
				"box" : 				{
					"maxclass" : "newobj",
					"text" : "loadmess 1",
					"numinlets" : 1,
					"patching_rect" : [ 591.419861, 1039.163086, 72.0, 20.0 ],
					"id" : "obj-21",
					"fontname" : "Arial",
					"numoutlets" : 1,
					"outlettype" : [ "" ],
					"fontsize" : 12.0
				}

			}
, 			{
				"box" : 				{
					"maxclass" : "ezdac~",
					"numinlets" : 2,
					"patching_rect" : [ 488.0, 1819.163086, 45.0, 45.0 ],
					"id" : "obj-2",
					"numoutlets" : 0
				}

			}
, 			{
				"box" : 				{
					"maxclass" : "bpatcher",
					"numinlets" : 5,
					"patching_rect" : [ 337.284576, 959.627319, 186.0, 89.287109 ],
					"presentation" : 1,
					"id" : "obj-1",
					"numoutlets" : 1,
					"name" : "oneShotSampler.maxpat",
					"outlettype" : [ "signal" ],
					"args" : [  ],
					"presentation_rect" : [ 33.06142, 328.496521, 81.037354, 294.03244 ]
				}

			}
, 			{
				"box" : 				{
					"maxclass" : "panel",
					"numinlets" : 1,
					"patching_rect" : [ 403.019989, 51.72699, 128.0, 128.0 ],
					"presentation" : 1,
					"id" : "obj-20",
					"numoutlets" : 0,
					"presentation_rect" : [ 0.0, 0.0, 1360.500488, 646.039368 ],
					"bgcolor" : [ 0.607843, 0.666667, 0.666667, 1.0 ]
				}

			}
 ],
		"lines" : [ 			{
				"patchline" : 				{
					"source" : [ "obj-52", 0 ],
					"destination" : [ "obj-1", 3 ],
					"hidden" : 0,
					"midpoints" : [  ]
				}

			}
, 			{
				"patchline" : 				{
					"source" : [ "obj-41", 2 ],
					"destination" : [ "obj-52", 1 ],
					"hidden" : 0,
					"midpoints" : [  ]
				}

			}
, 			{
				"patchline" : 				{
					"source" : [ "obj-58", 0 ],
					"destination" : [ "obj-52", 0 ],
					"hidden" : 0,
					"midpoints" : [  ]
				}

			}
, 			{
				"patchline" : 				{
					"source" : [ "obj-95", 0 ],
					"destination" : [ "obj-45", 0 ],
					"hidden" : 0,
					"midpoints" : [ 770.659973, 1248.0, 827.333252, 1248.0 ]
				}

			}
, 			{
				"patchline" : 				{
					"source" : [ "obj-94", 0 ],
					"destination" : [ "obj-49", 0 ],
					"hidden" : 0,
					"midpoints" : [ 878.159973, 1209.0, 901.659973, 1209.0 ]
				}

			}
, 			{
				"patchline" : 				{
					"source" : [ "obj-9", 0 ],
					"destination" : [ "obj-27", 0 ],
					"hidden" : 0,
					"midpoints" : [ 187.0, 1614.0, 174.0, 1614.0, 174.0, 1608.0, 172.0, 1608.0 ]
				}

			}
, 			{
				"patchline" : 				{
					"source" : [ "obj-89", 0 ],
					"destination" : [ "obj-36", 0 ],
					"hidden" : 0,
					"midpoints" : [ 501.659973, 363.0, 489.0, 363.0, 489.0, 264.0, 369.159973, 264.0 ]
				}

			}
, 			{
				"patchline" : 				{
					"source" : [ "obj-88", 0 ],
					"destination" : [ "obj-90", 1 ],
					"hidden" : 0,
					"midpoints" : [ 600.919861, 1020.0, 639.0, 1020.0, 639.0, 978.0, 694.5, 978.0 ]
				}

			}
, 			{
				"patchline" : 				{
					"source" : [ "obj-88", 0 ],
					"destination" : [ "obj-1", 3 ],
					"hidden" : 0,
					"midpoints" : [ 600.919861, 1011.0, 534.0, 1011.0, 534.0, 945.0, 472.034576, 945.0 ]
				}

			}
, 			{
				"patchline" : 				{
					"source" : [ "obj-87", 0 ],
					"destination" : [ "obj-1", 4 ],
					"hidden" : 0,
					"midpoints" : [ 207.417496, 951.0, 324.0, 951.0, 324.0, 945.0, 513.784546, 945.0 ]
				}

			}
, 			{
				"patchline" : 				{
					"source" : [ "obj-85", 0 ],
					"destination" : [ "obj-89", 0 ],
					"hidden" : 0,
					"midpoints" : [ 539.5, 321.0, 501.659973, 321.0 ]
				}

			}
, 			{
				"patchline" : 				{
					"source" : [ "obj-82", 0 ],
					"destination" : [ "obj-81", 0 ],
					"hidden" : 0,
					"midpoints" : [ 1814.75, 693.0, 1814.75, 693.0 ]
				}

			}
, 			{
				"patchline" : 				{
					"source" : [ "obj-81", 0 ],
					"destination" : [ "obj-29", 0 ],
					"hidden" : 0,
					"midpoints" : [ 1814.75, 729.0, 1810.5, 729.0 ]
				}

			}
, 			{
				"patchline" : 				{
					"source" : [ "obj-78", 0 ],
					"destination" : [ "obj-26", 3 ],
					"hidden" : 0,
					"midpoints" : [ 1725.75, 720.0, 1696.75, 720.0 ]
				}

			}
, 			{
				"patchline" : 				{
					"source" : [ "obj-77", 0 ],
					"destination" : [ "obj-79", 0 ],
					"hidden" : 0,
					"midpoints" : [ 1795.0, 813.0, 1674.75, 813.0 ]
				}

			}
, 			{
				"patchline" : 				{
					"source" : [ "obj-74", 0 ],
					"destination" : [ "obj-79", 0 ],
					"hidden" : 0,
					"midpoints" : [ 1747.25, 813.0, 1674.75, 813.0 ]
				}

			}
, 			{
				"patchline" : 				{
					"source" : [ "obj-73", 0 ],
					"destination" : [ "obj-79", 0 ],
					"hidden" : 0,
					"midpoints" : [ 1714.75, 813.0, 1674.75, 813.0 ]
				}

			}
, 			{
				"patchline" : 				{
					"source" : [ "obj-72", 1 ],
					"destination" : [ "obj-77", 0 ],
					"hidden" : 0,
					"midpoints" : [ 1759.0, 492.0, 1788.0, 492.0, 1788.0, 768.0, 1795.0, 768.0 ]
				}

			}
, 			{
				"patchline" : 				{
					"source" : [ "obj-72", 0 ],
					"destination" : [ "obj-55", 0 ],
					"hidden" : 0,
					"midpoints" : [ 1622.5, 435.0, 660.0, 435.0, 660.0, 426.0, 486.659973, 426.0 ]
				}

			}
, 			{
				"patchline" : 				{
					"source" : [ "obj-72", 1 ],
					"destination" : [ "obj-26", 2 ],
					"hidden" : 0,
					"midpoints" : [ 1759.0, 492.0, 1785.0, 492.0, 1785.0, 621.0, 1666.75, 621.0 ]
				}

			}
, 			{
				"patchline" : 				{
					"source" : [ "obj-72", 2 ],
					"destination" : [ "obj-26", 1 ],
					"hidden" : 0,
					"midpoints" : [ 1895.5, 615.0, 1636.75, 615.0 ]
				}

			}
, 			{
				"patchline" : 				{
					"source" : [ "obj-71", 1 ],
					"destination" : [ "obj-74", 0 ],
					"hidden" : 0,
					"midpoints" : [ 1456.75, 621.0, 1788.0, 621.0, 1788.0, 759.0, 1749.0, 759.0, 1749.0, 771.0, 1747.25, 771.0 ]
				}

			}
, 			{
				"patchline" : 				{
					"source" : [ "obj-71", 0 ],
					"destination" : [ "obj-55", 0 ],
					"hidden" : 0,
					"midpoints" : [ 1322.5, 435.0, 660.0, 435.0, 660.0, 426.0, 486.659973, 426.0 ]
				}

			}
, 			{
				"patchline" : 				{
					"source" : [ "obj-71", 1 ],
					"destination" : [ "obj-26", 2 ],
					"hidden" : 0,
					"midpoints" : [ 1456.75, 717.0, 1666.75, 717.0 ]
				}

			}
, 			{
				"patchline" : 				{
					"source" : [ "obj-71", 2 ],
					"destination" : [ "obj-26", 1 ],
					"hidden" : 0,
					"midpoints" : [ 1591.0, 492.0, 1575.0, 492.0, 1575.0, 543.0, 1636.75, 543.0 ]
				}

			}
, 			{
				"patchline" : 				{
					"source" : [ "obj-70", 1 ],
					"destination" : [ "obj-73", 0 ],
					"hidden" : 0,
					"midpoints" : [ 1157.97998, 804.0, 1701.0, 804.0, 1701.0, 771.0, 1714.75, 771.0 ]
				}

			}
, 			{
				"patchline" : 				{
					"source" : [ "obj-70", 0 ],
					"destination" : [ "obj-55", 0 ],
					"hidden" : 0,
					"midpoints" : [ 1023.47998, 435.0, 660.0, 435.0, 660.0, 426.0, 486.659973, 426.0 ]
				}

			}
, 			{
				"patchline" : 				{
					"source" : [ "obj-70", 1 ],
					"destination" : [ "obj-26", 2 ],
					"hidden" : 0,
					"midpoints" : [ 1157.97998, 717.0, 1666.75, 717.0 ]
				}

			}
, 			{
				"patchline" : 				{
					"source" : [ "obj-70", 2 ],
					"destination" : [ "obj-26", 1 ],
					"hidden" : 0,
					"midpoints" : [ 1292.47998, 717.0, 1636.75, 717.0 ]
				}

			}
, 			{
				"patchline" : 				{
					"source" : [ "obj-69", 1 ],
					"destination" : [ "obj-63", 0 ],
					"hidden" : 0,
					"midpoints" : [ 855.48999, 606.0, 1584.0, 606.0, 1584.0, 768.0, 1674.75, 768.0 ]
				}

			}
, 			{
				"patchline" : 				{
					"source" : [ "obj-69", 0 ],
					"destination" : [ "obj-55", 0 ],
					"hidden" : 0,
					"midpoints" : [ 719.5, 426.0, 486.659973, 426.0 ]
				}

			}
, 			{
				"patchline" : 				{
					"source" : [ "obj-69", 1 ],
					"destination" : [ "obj-26", 2 ],
					"hidden" : 0,
					"midpoints" : [ 855.48999, 606.0, 1666.75, 606.0 ]
				}

			}
, 			{
				"patchline" : 				{
					"source" : [ "obj-69", 2 ],
					"destination" : [ "obj-26", 1 ],
					"hidden" : 0,
					"midpoints" : [ 991.47998, 717.0, 1636.75, 717.0 ]
				}

			}
, 			{
				"patchline" : 				{
					"source" : [ "obj-68", 1 ],
					"destination" : [ "obj-62", 0 ],
					"hidden" : 0,
					"midpoints" : [ 1759.0, 306.0, 1608.0, 306.0, 1608.0, 492.0, 1575.0, 492.0, 1575.0, 543.0, 1584.0, 543.0, 1584.0, 768.0, 1639.25, 768.0 ]
				}

			}
, 			{
				"patchline" : 				{
					"source" : [ "obj-68", 0 ],
					"destination" : [ "obj-55", 0 ],
					"hidden" : 0,
					"midpoints" : [ 1622.5, 306.0, 1608.0, 306.0, 1608.0, 435.0, 660.0, 435.0, 660.0, 426.0, 486.659973, 426.0 ]
				}

			}
, 			{
				"patchline" : 				{
					"source" : [ "obj-68", 1 ],
					"destination" : [ "obj-26", 2 ],
					"hidden" : 0,
					"midpoints" : [ 1759.0, 306.0, 1917.0, 306.0, 1917.0, 615.0, 1666.75, 615.0 ]
				}

			}
, 			{
				"patchline" : 				{
					"source" : [ "obj-68", 2 ],
					"destination" : [ "obj-26", 1 ],
					"hidden" : 0,
					"midpoints" : [ 1895.5, 306.0, 1917.0, 306.0, 1917.0, 615.0, 1636.75, 615.0 ]
				}

			}
, 			{
				"patchline" : 				{
					"source" : [ "obj-67", 1 ],
					"destination" : [ "obj-61", 0 ],
					"hidden" : 0,
					"midpoints" : [ 1455.0, 324.0, 1602.0, 324.0, 1602.0, 492.0, 1575.0, 492.0, 1575.0, 543.0, 1584.0, 543.0, 1584.0, 771.0, 1606.75, 771.0 ]
				}

			}
, 			{
				"patchline" : 				{
					"source" : [ "obj-67", 0 ],
					"destination" : [ "obj-55", 0 ],
					"hidden" : 0,
					"midpoints" : [ 1319.0, 306.0, 1308.0, 306.0, 1308.0, 435.0, 660.0, 435.0, 660.0, 426.0, 486.659973, 426.0 ]
				}

			}
, 			{
				"patchline" : 				{
					"source" : [ "obj-67", 1 ],
					"destination" : [ "obj-26", 2 ],
					"hidden" : 0,
					"midpoints" : [ 1455.0, 324.0, 1602.0, 324.0, 1602.0, 492.0, 1575.0, 492.0, 1575.0, 543.0, 1666.75, 543.0 ]
				}

			}
, 			{
				"patchline" : 				{
					"source" : [ "obj-67", 2 ],
					"destination" : [ "obj-26", 1 ],
					"hidden" : 0,
					"midpoints" : [ 1591.0, 324.0, 1602.0, 324.0, 1602.0, 492.0, 1575.0, 492.0, 1575.0, 543.0, 1636.75, 543.0 ]
				}

			}
, 			{
				"patchline" : 				{
					"source" : [ "obj-66", 2 ],
					"destination" : [ "obj-70", 1 ],
					"hidden" : 0,
					"midpoints" : [ 1292.47998, 306.0, 1292.47998, 306.0 ]
				}

			}
, 			{
				"patchline" : 				{
					"source" : [ "obj-66", 1 ],
					"destination" : [ "obj-60", 0 ],
					"hidden" : 0,
					"midpoints" : [ 1157.97998, 324.0, 1302.0, 324.0, 1302.0, 759.0, 1567.25, 759.0 ]
				}

			}
, 			{
				"patchline" : 				{
					"source" : [ "obj-66", 0 ],
					"destination" : [ "obj-55", 0 ],
					"hidden" : 0,
					"midpoints" : [ 1023.47998, 306.0, 1008.0, 306.0, 1008.0, 435.0, 660.0, 435.0, 660.0, 426.0, 486.659973, 426.0 ]
				}

			}
, 			{
				"patchline" : 				{
					"source" : [ "obj-66", 1 ],
					"destination" : [ "obj-26", 2 ],
					"hidden" : 0,
					"midpoints" : [ 1157.97998, 324.0, 1302.0, 324.0, 1302.0, 717.0, 1666.75, 717.0 ]
				}

			}
, 			{
				"patchline" : 				{
					"source" : [ "obj-66", 2 ],
					"destination" : [ "obj-26", 1 ],
					"hidden" : 0,
					"midpoints" : [ 1292.47998, 324.0, 1302.0, 324.0, 1302.0, 717.0, 1636.75, 717.0 ]
				}

			}
, 			{
				"patchline" : 				{
					"source" : [ "obj-65", 1 ],
					"destination" : [ "obj-59", 0 ],
					"hidden" : 0,
					"midpoints" : [ 855.48999, 324.0, 1002.0, 324.0, 1002.0, 759.0, 1535.25, 759.0 ]
				}

			}
, 			{
				"patchline" : 				{
					"source" : [ "obj-65", 0 ],
					"destination" : [ "obj-55", 0 ],
					"hidden" : 0,
					"midpoints" : [ 719.5, 306.0, 690.0, 306.0, 690.0, 426.0, 486.659973, 426.0 ]
				}

			}
, 			{
				"patchline" : 				{
					"source" : [ "obj-65", 1 ],
					"destination" : [ "obj-26", 2 ],
					"hidden" : 0,
					"midpoints" : [ 855.48999, 324.0, 1002.0, 324.0, 1002.0, 717.0, 1666.75, 717.0 ]
				}

			}
, 			{
				"patchline" : 				{
					"source" : [ "obj-65", 2 ],
					"destination" : [ "obj-26", 1 ],
					"hidden" : 0,
					"midpoints" : [ 991.47998, 324.0, 1002.0, 324.0, 1002.0, 717.0, 1636.75, 717.0 ]
				}

			}
, 			{
				"patchline" : 				{
					"source" : [ "obj-64", 7 ],
					"destination" : [ "obj-72", 0 ],
					"hidden" : 0,
					"midpoints" : [ 1286.47998, 195.0, 1608.0, 195.0, 1608.0, 321.0, 1622.5, 321.0 ]
				}

			}
, 			{
				"patchline" : 				{
					"source" : [ "obj-64", 6 ],
					"destination" : [ "obj-71", 0 ],
					"hidden" : 0,
					"midpoints" : [ 1264.051392, 195.0, 1305.0, 195.0, 1305.0, 324.0, 1322.5, 324.0 ]
				}

			}
, 			{
				"patchline" : 				{
					"source" : [ "obj-64", 5 ],
					"destination" : [ "obj-70", 0 ],
					"hidden" : 0,
					"midpoints" : [ 1241.622803, 195.0, 1008.0, 195.0, 1008.0, 324.0, 1023.47998, 324.0 ]
				}

			}
, 			{
				"patchline" : 				{
					"source" : [ "obj-64", 4 ],
					"destination" : [ "obj-69", 0 ],
					"hidden" : 0,
					"midpoints" : [ 1219.194214, 195.0, 696.0, 195.0, 696.0, 324.0, 719.5, 324.0 ]
				}

			}
, 			{
				"patchline" : 				{
					"source" : [ "obj-64", 3 ],
					"destination" : [ "obj-68", 0 ],
					"hidden" : 0,
					"midpoints" : [ 1196.765747, 195.0, 1622.5, 195.0 ]
				}

			}
, 			{
				"patchline" : 				{
					"source" : [ "obj-64", 2 ],
					"destination" : [ "obj-67", 0 ],
					"hidden" : 0,
					"midpoints" : [ 1174.337158, 195.0, 1319.0, 195.0 ]
				}

			}
, 			{
				"patchline" : 				{
					"source" : [ "obj-64", 1 ],
					"destination" : [ "obj-66", 0 ],
					"hidden" : 0,
					"midpoints" : [ 1151.908569, 195.0, 1023.47998, 195.0 ]
				}

			}
, 			{
				"patchline" : 				{
					"source" : [ "obj-64", 0 ],
					"destination" : [ "obj-65", 0 ],
					"hidden" : 0,
					"midpoints" : [ 1129.47998, 195.0, 719.5, 195.0 ]
				}

			}
, 			{
				"patchline" : 				{
					"source" : [ "obj-63", 0 ],
					"destination" : [ "obj-79", 0 ],
					"hidden" : 0,
					"midpoints" : [ 1674.75, 792.0, 1674.75, 792.0 ]
				}

			}
, 			{
				"patchline" : 				{
					"source" : [ "obj-62", 0 ],
					"destination" : [ "obj-79", 0 ],
					"hidden" : 0,
					"midpoints" : [ 1639.25, 813.0, 1674.75, 813.0 ]
				}

			}
, 			{
				"patchline" : 				{
					"source" : [ "obj-61", 0 ],
					"destination" : [ "obj-79", 0 ],
					"hidden" : 0,
					"midpoints" : [ 1606.75, 813.0, 1674.75, 813.0 ]
				}

			}
, 			{
				"patchline" : 				{
					"source" : [ "obj-60", 0 ],
					"destination" : [ "obj-79", 0 ],
					"hidden" : 0,
					"midpoints" : [ 1567.25, 813.0, 1674.75, 813.0 ]
				}

			}
, 			{
				"patchline" : 				{
					"source" : [ "obj-59", 0 ],
					"destination" : [ "obj-79", 0 ],
					"hidden" : 0,
					"midpoints" : [ 1535.25, 813.0, 1674.75, 813.0 ]
				}

			}
, 			{
				"patchline" : 				{
					"source" : [ "obj-58", 0 ],
					"destination" : [ "obj-89", 1 ],
					"hidden" : 0,
					"midpoints" : [ 302.5, 321.0, 680.659973, 321.0 ]
				}

			}
, 			{
				"patchline" : 				{
					"source" : [ "obj-58", 0 ],
					"destination" : [ "obj-8", 0 ],
					"hidden" : 0,
					"midpoints" : [ 302.5, 549.0, 30.038025, 549.0 ]
				}

			}
, 			{
				"patchline" : 				{
					"source" : [ "obj-57", 0 ],
					"destination" : [ "obj-78", 0 ],
					"hidden" : 0,
					"midpoints" : [ 1725.75, 693.0, 1725.75, 693.0 ]
				}

			}
, 			{
				"patchline" : 				{
					"source" : [ "obj-55", 0 ],
					"destination" : [ "obj-11", 2 ],
					"hidden" : 0,
					"midpoints" : [ 486.659973, 492.0, 708.493286, 492.0 ]
				}

			}
, 			{
				"patchline" : 				{
					"source" : [ "obj-54", 0 ],
					"destination" : [ "obj-72", 1 ],
					"hidden" : 0,
					"midpoints" : [ 252.519989, 195.0, 1917.0, 195.0, 1917.0, 324.0, 1895.5, 324.0 ]
				}

			}
, 			{
				"patchline" : 				{
					"source" : [ "obj-54", 0 ],
					"destination" : [ "obj-71", 1 ],
					"hidden" : 0,
					"midpoints" : [ 252.519989, 195.0, 1602.0, 195.0, 1602.0, 321.0, 1591.0, 321.0 ]
				}

			}
, 			{
				"patchline" : 				{
					"source" : [ "obj-54", 0 ],
					"destination" : [ "obj-70", 1 ],
					"hidden" : 0,
					"midpoints" : [ 252.519989, 195.0, 1302.0, 195.0, 1302.0, 321.0, 1292.47998, 321.0 ]
				}

			}
, 			{
				"patchline" : 				{
					"source" : [ "obj-54", 0 ],
					"destination" : [ "obj-69", 1 ],
					"hidden" : 0,
					"midpoints" : [ 252.519989, 195.0, 1002.0, 195.0, 1002.0, 321.0, 991.47998, 321.0 ]
				}

			}
, 			{
				"patchline" : 				{
					"source" : [ "obj-54", 0 ],
					"destination" : [ "obj-68", 1 ],
					"hidden" : 0,
					"midpoints" : [ 252.519989, 195.0, 1895.5, 195.0 ]
				}

			}
, 			{
				"patchline" : 				{
					"source" : [ "obj-54", 0 ],
					"destination" : [ "obj-67", 1 ],
					"hidden" : 0,
					"midpoints" : [ 252.519989, 195.0, 1591.0, 195.0 ]
				}

			}
, 			{
				"patchline" : 				{
					"source" : [ "obj-54", 0 ],
					"destination" : [ "obj-66", 1 ],
					"hidden" : 0,
					"midpoints" : [ 252.519989, 195.0, 1292.47998, 195.0 ]
				}

			}
, 			{
				"patchline" : 				{
					"source" : [ "obj-54", 0 ],
					"destination" : [ "obj-65", 1 ],
					"hidden" : 0,
					"midpoints" : [ 252.519989, 195.0, 991.47998, 195.0 ]
				}

			}
, 			{
				"patchline" : 				{
					"source" : [ "obj-54", 0 ],
					"destination" : [ "obj-58", 0 ],
					"hidden" : 0,
					"midpoints" : [ 252.519989, 237.0, 302.5, 237.0 ]
				}

			}
, 			{
				"patchline" : 				{
					"source" : [ "obj-54", 0 ],
					"destination" : [ "obj-55", 1 ],
					"hidden" : 0,
					"midpoints" : [ 252.519989, 426.0, 638.659973, 426.0 ]
				}

			}
, 			{
				"patchline" : 				{
					"source" : [ "obj-54", 0 ],
					"destination" : [ "obj-45", 2 ],
					"hidden" : 0,
					"midpoints" : [ 252.519989, 721.363525, 987.333252, 721.363525 ]
				}

			}
, 			{
				"patchline" : 				{
					"source" : [ "obj-54", 0 ],
					"destination" : [ "obj-19", 1 ],
					"hidden" : 0,
					"midpoints" : [ 252.519989, 533.948486, 1492.5, 533.948486 ]
				}

			}
, 			{
				"patchline" : 				{
					"source" : [ "obj-54", 0 ],
					"destination" : [ "obj-11", 3 ],
					"hidden" : 0,
					"midpoints" : [  ]
				}

			}
, 			{
				"patchline" : 				{
					"source" : [ "obj-53", 0 ],
					"destination" : [ "obj-64", 0 ],
					"hidden" : 0,
					"midpoints" : [ 1129.47998, 105.0, 1129.47998, 105.0 ]
				}

			}
, 			{
				"patchline" : 				{
					"source" : [ "obj-49", 0 ],
					"destination" : [ "obj-45", 1 ],
					"hidden" : 0,
					"midpoints" : [ 901.659973, 1257.0, 907.333252, 1257.0 ]
				}

			}
, 			{
				"patchline" : 				{
					"source" : [ "obj-46", 0 ],
					"destination" : [ "obj-12", 0 ],
					"hidden" : 0,
					"midpoints" : [  ]
				}

			}
, 			{
				"patchline" : 				{
					"source" : [ "obj-45", 0 ],
					"destination" : [ "obj-19", 0 ],
					"hidden" : 0,
					"midpoints" : [ 827.333252, 1293.0, 1032.0, 1293.0, 1032.0, 885.0, 1205.5, 885.0 ]
				}

			}
, 			{
				"patchline" : 				{
					"source" : [ "obj-44", 0 ],
					"destination" : [ "obj-11", 0 ],
					"hidden" : 0,
					"midpoints" : [  ]
				}

			}
, 			{
				"patchline" : 				{
					"source" : [ "obj-42", 0 ],
					"destination" : [ "obj-14", 0 ],
					"hidden" : 0,
					"midpoints" : [  ]
				}

			}
, 			{
				"patchline" : 				{
					"source" : [ "obj-41", 3 ],
					"destination" : [ "obj-85", 0 ],
					"hidden" : 0,
					"midpoints" : [ 451.659973, 354.0, 489.0, 354.0, 489.0, 294.0, 539.5, 294.0 ]
				}

			}
, 			{
				"patchline" : 				{
					"source" : [ "obj-41", 2 ],
					"destination" : [ "obj-8", 1 ],
					"hidden" : 0,
					"midpoints" : [ 424.159973, 519.0, 187.269012, 519.0 ]
				}

			}
, 			{
				"patchline" : 				{
					"source" : [ "obj-41", 1 ],
					"destination" : [ "obj-53", 0 ],
					"hidden" : 0,
					"midpoints" : [ 396.659973, 366.0, 489.0, 366.0, 489.0, 189.0, 1104.0, 189.0, 1104.0, 81.0, 1129.47998, 81.0 ]
				}

			}
, 			{
				"patchline" : 				{
					"source" : [ "obj-41", 0 ],
					"destination" : [ "obj-34", 0 ],
					"hidden" : 0,
					"midpoints" : [ 369.159973, 354.0, 369.159973, 354.0 ]
				}

			}
, 			{
				"patchline" : 				{
					"source" : [ "obj-41", 0 ],
					"destination" : [ "obj-32", 0 ],
					"hidden" : 0,
					"midpoints" : [ 369.159973, 354.0, 343.5, 354.0 ]
				}

			}
, 			{
				"patchline" : 				{
					"source" : [ "obj-41", 1 ],
					"destination" : [ "obj-3", 0 ],
					"hidden" : 0,
					"midpoints" : [ 396.659973, 372.0, 486.659973, 372.0 ]
				}

			}
, 			{
				"patchline" : 				{
					"source" : [ "obj-40", 0 ],
					"destination" : [ "obj-54", 0 ],
					"hidden" : 0,
					"midpoints" : [ 209.019989, 141.0, 252.519989, 141.0 ]
				}

			}
, 			{
				"patchline" : 				{
					"source" : [ "obj-4", 0 ],
					"destination" : [ "obj-87", 0 ],
					"hidden" : 0,
					"midpoints" : [ 207.417496, 897.0, 207.417496, 897.0 ]
				}

			}
, 			{
				"patchline" : 				{
					"source" : [ "obj-39", 0 ],
					"destination" : [ "obj-36", 0 ],
					"hidden" : 0,
					"midpoints" : [ 878.159973, 909.0, 864.0, 909.0, 864.0, 879.0, 897.0, 879.0, 897.0, 435.0, 690.0, 435.0, 690.0, 264.0, 369.159973, 264.0 ]
				}

			}
, 			{
				"patchline" : 				{
					"source" : [ "obj-38", 0 ],
					"destination" : [ "obj-16", 0 ],
					"hidden" : 0,
					"midpoints" : [ 192.5, 1257.0, 187.0, 1257.0 ]
				}

			}
, 			{
				"patchline" : 				{
					"source" : [ "obj-36", 0 ],
					"destination" : [ "obj-46", 0 ],
					"hidden" : 0,
					"midpoints" : [  ]
				}

			}
, 			{
				"patchline" : 				{
					"source" : [ "obj-36", 0 ],
					"destination" : [ "obj-41", 0 ],
					"hidden" : 0,
					"midpoints" : [ 369.159973, 300.0, 369.159973, 300.0 ]
				}

			}
, 			{
				"patchline" : 				{
					"source" : [ "obj-36", 0 ],
					"destination" : [ "obj-4", 0 ],
					"hidden" : 0,
					"midpoints" : [ 369.159973, 321.0, 321.0, 321.0, 321.0, 567.0, 354.0, 567.0, 354.0, 609.0, 345.0, 609.0, 345.0, 666.0, 354.0, 666.0, 354.0, 729.0, 207.417496, 729.0 ]
				}

			}
, 			{
				"patchline" : 				{
					"source" : [ "obj-36", 0 ],
					"destination" : [ "obj-22", 0 ],
					"hidden" : 0,
					"midpoints" : [ 369.159973, 321.0, 321.0, 321.0, 321.0, 567.0, 354.0, 567.0, 354.0, 942.0, 600.919861, 942.0 ]
				}

			}
, 			{
				"patchline" : 				{
					"source" : [ "obj-35", 0 ],
					"destination" : [ "obj-8", 2 ],
					"hidden" : 0,
					"midpoints" : [  ]
				}

			}
, 			{
				"patchline" : 				{
					"source" : [ "obj-35", 0 ],
					"destination" : [ "obj-11", 1 ],
					"hidden" : 0,
					"midpoints" : [ 410.159973, 606.0, 538.82666, 606.0 ]
				}

			}
, 			{
				"patchline" : 				{
					"source" : [ "obj-34", 2 ],
					"destination" : [ "obj-48", 1 ],
					"hidden" : 0,
					"midpoints" : [ 451.159973, 555.0, 507.5, 555.0 ]
				}

			}
, 			{
				"patchline" : 				{
					"source" : [ "obj-34", 1 ],
					"destination" : [ "obj-35", 0 ],
					"hidden" : 0,
					"midpoints" : [ 410.159973, 555.0, 410.159973, 555.0 ]
				}

			}
, 			{
				"patchline" : 				{
					"source" : [ "obj-33", 0 ],
					"destination" : [ "obj-11", 0 ],
					"hidden" : 0,
					"midpoints" : [ 369.159973, 591.0, 369.159973, 591.0 ]
				}

			}
, 			{
				"patchline" : 				{
					"source" : [ "obj-30", 0 ],
					"destination" : [ "obj-26", 0 ],
					"hidden" : 0,
					"midpoints" : [ 1529.5, 717.0, 1606.75, 717.0 ]
				}

			}
, 			{
				"patchline" : 				{
					"source" : [ "obj-3", 0 ],
					"destination" : [ "obj-55", 0 ],
					"hidden" : 0,
					"midpoints" : [ 486.659973, 396.0, 486.659973, 396.0 ]
				}

			}
, 			{
				"patchline" : 				{
					"source" : [ "obj-29", 0 ],
					"destination" : [ "obj-26", 4 ],
					"hidden" : 0,
					"midpoints" : [ 1810.5, 753.0, 1776.0, 753.0, 1776.0, 729.0, 1726.75, 729.0 ]
				}

			}
, 			{
				"patchline" : 				{
					"source" : [ "obj-27", 0 ],
					"destination" : [ "obj-2", 0 ],
					"hidden" : 0,
					"midpoints" : [ 172.0, 1806.0, 497.5, 1806.0 ]
				}

			}
, 			{
				"patchline" : 				{
					"source" : [ "obj-27", 0 ],
					"destination" : [ "obj-2", 1 ],
					"hidden" : 0,
					"midpoints" : [ 172.0, 1806.0, 523.5, 1806.0 ]
				}

			}
, 			{
				"patchline" : 				{
					"source" : [ "obj-26", 0 ],
					"destination" : [ "obj-19", 0 ],
					"hidden" : 0,
					"midpoints" : [ 1606.75, 753.0, 1176.0, 753.0, 1176.0, 885.0, 1205.5, 885.0 ]
				}

			}
, 			{
				"patchline" : 				{
					"source" : [ "obj-25", 0 ],
					"destination" : [ "obj-33", 0 ],
					"hidden" : 0,
					"midpoints" : [  ]
				}

			}
, 			{
				"patchline" : 				{
					"source" : [ "obj-22", 0 ],
					"destination" : [ "obj-88", 0 ],
					"hidden" : 0,
					"midpoints" : [ 600.919861, 978.0, 600.919861, 978.0 ]
				}

			}
, 			{
				"patchline" : 				{
					"source" : [ "obj-21", 0 ],
					"destination" : [ "obj-2", 0 ],
					"hidden" : 0,
					"midpoints" : [ 600.919861, 1806.0, 497.5, 1806.0 ]
				}

			}
, 			{
				"patchline" : 				{
					"source" : [ "obj-19", 0 ],
					"destination" : [ "obj-55", 0 ],
					"hidden" : 0,
					"midpoints" : [ 1205.5, 1003.170044, 846.079956, 1003.170044, 846.079956, 430.0, 486.659973, 430.0 ]
				}

			}
, 			{
				"patchline" : 				{
					"source" : [ "obj-16", 0 ],
					"destination" : [ "obj-9", 0 ],
					"hidden" : 0,
					"midpoints" : [ 187.0, 1431.0, 187.0, 1431.0 ]
				}

			}
, 			{
				"patchline" : 				{
					"source" : [ "obj-15", 0 ],
					"destination" : [ "obj-11", 2 ],
					"hidden" : 0,
					"midpoints" : [ 614.659973, 606.0, 708.493286, 606.0 ]
				}

			}
, 			{
				"patchline" : 				{
					"source" : [ "obj-14", 0 ],
					"destination" : [ "obj-26", 5 ],
					"hidden" : 0,
					"midpoints" : [ 1901.5, 729.0, 1756.75, 729.0 ]
				}

			}
, 			{
				"patchline" : 				{
					"source" : [ "obj-12", 0 ],
					"destination" : [ "obj-15", 0 ],
					"hidden" : 0,
					"midpoints" : [ 609.919861, 567.0, 614.659973, 567.0 ]
				}

			}
, 			{
				"patchline" : 				{
					"source" : [ "obj-11", 3 ],
					"destination" : [ "obj-49", 1 ],
					"hidden" : 0,
					"midpoints" : [ 878.159973, 885.0, 855.0, 885.0, 855.0, 1155.0, 930.0, 1155.0, 930.0, 1209.0, 921.659973, 1209.0 ]
				}

			}
, 			{
				"patchline" : 				{
					"source" : [ "obj-11", 3 ],
					"destination" : [ "obj-39", 0 ],
					"hidden" : 0,
					"midpoints" : [ 878.159973, 879.0, 878.159973, 879.0 ]
				}

			}
, 			{
				"patchline" : 				{
					"source" : [ "obj-11", 0 ],
					"destination" : [ "obj-1", 0 ],
					"hidden" : 0,
					"midpoints" : [ 369.159973, 945.0, 346.784576, 945.0 ]
				}

			}
, 			{
				"patchline" : 				{
					"source" : [ "obj-11", 1 ],
					"destination" : [ "obj-1", 1 ],
					"hidden" : 0,
					"midpoints" : [ 538.82666, 945.0, 388.534576, 945.0 ]
				}

			}
, 			{
				"patchline" : 				{
					"source" : [ "obj-11", 2 ],
					"destination" : [ "obj-1", 2 ],
					"hidden" : 0,
					"midpoints" : [ 708.493286, 942.0, 430.284576, 942.0 ]
				}

			}
, 			{
				"patchline" : 				{
					"source" : [ "obj-106", 0 ],
					"destination" : [ "obj-45", 1 ],
					"hidden" : 0,
					"midpoints" : [ 843.826721, 1248.0, 903.0, 1248.0, 903.0, 1260.0, 907.333252, 1260.0 ]
				}

			}
, 			{
				"patchline" : 				{
					"source" : [ "obj-1", 0 ],
					"destination" : [ "obj-38", 0 ],
					"hidden" : 0,
					"midpoints" : [ 346.784576, 1089.0, 192.5, 1089.0 ]
				}

			}
 ],
		"parameters" : 		{
			"obj-16::obj-71" : [ "live.gain~[2]", "live.gain~", 0 ]
		}

	}

}
